<svg xmlns="http://www.w3.org/2000/svg" width="47" height="47" viewBox="0 0 47 47" fill="none">
  <g clip-path="url(#clip0_58_3)">
    <g filter="url(#filter0_d_58_3)">
      <path fill-rule="evenodd" clip-rule="evenodd" d="M19.9377 -0.021637C20.1542 -0.021637 20.3706 -0.021637 20.5871 -0.021637C21.0367 0.0884685 21.347 0.362563 21.518 0.800647C21.5943 1.40549 21.6664 2.01139 21.7345 2.61833C21.8295 3.12013 22.0171 3.58176 22.2973 4.00322C22.3021 2.78865 22.8 1.84375 23.791 1.16851C24.3674 0.811557 24.9735 0.73943 25.6094 0.95212C26.0246 1.18274 26.2628 1.53618 26.3238 2.01243C26.2633 3.07941 26.4943 4.0748 27.0165 4.99862C27.2701 5.35251 27.5948 5.61936 27.9907 5.79927C34.1259 7.13517 38.9967 10.3449 42.603 15.4286C44.8306 18.7405 46.0792 22.3902 46.3481 26.378C46.3481 27.1714 46.3481 27.9649 46.3481 28.7583C45.8134 35.4698 42.6239 40.4684 36.7797 43.7541C33.6731 45.4 30.3682 46.4097 26.865 46.7836C26.1088 46.8593 25.3583 46.9243 24.6136 46.9784C23.6467 46.9784 22.6797 46.9784 21.7128 46.9784C18.0277 46.8256 14.4919 46.0107 11.1054 44.5331C8.14985 43.209 5.66035 41.2831 3.63684 38.7555C1.33801 35.6634 0.118513 32.1867 -0.0216522 28.3255C-0.0216522 27.8206 -0.0216522 27.3157 -0.0216522 26.8108C0.40417 20.0515 3.24726 14.5624 8.50761 10.3435C11.4474 8.08829 14.7379 6.56633 18.379 5.77763C17.6424 4.67776 17.4187 3.48038 17.708 2.18555C18.0469 1.03166 18.7901 0.295934 19.9377 -0.021637Z" fill="#FBFDFE"/>
      <path d="M24.0634 1.58799C23.2167 2.16848 22.8014 2.95656 22.7973 4.0052L22.7908 5.6486L21.8809 4.28005C21.5634 3.80241 21.3505 3.27819 21.2432 2.71137L21.2397 2.69281L21.2376 2.67405C21.1723 2.09168 21.1032 1.51032 21.0303 0.929944C20.9238 0.690967 20.7622 0.549976 20.5213 0.478363H20.5212H20.5199H20.5186H20.5174H20.5161H20.5148H20.5135H20.5123H20.511H20.5097H20.5085H20.5072H20.5059H20.5047H20.5034H20.5021H20.5009H20.4996H20.4983H20.4971H20.4958H20.4945H20.4933H20.492H20.4907H20.4894H20.4882H20.4869H20.4856H20.4844H20.4831H20.4818H20.4806H20.4793H20.478H20.4768H20.4755H20.4742H20.473H20.4717H20.4704H20.4692H20.4679H20.4666H20.4653H20.4641H20.4628H20.4615H20.4603H20.459H20.4577H20.4565H20.4552H20.4539H20.4527H20.4514H20.4501H20.4489H20.4476H20.4463H20.4451H20.4438H20.4425H20.4412H20.44H20.4387H20.4374H20.4362H20.4349H20.4336H20.4324H20.4311H20.4298H20.4286H20.4273H20.426H20.4248H20.4235H20.4222H20.421H20.4197H20.4184H20.4171H20.4159H20.4146H20.4133H20.4121H20.4108H20.4095H20.4083H20.407H20.4057H20.4045H20.4032H20.4019H20.4007H20.3994H20.3981H20.3969H20.3956H20.3943H20.393H20.3918H20.3905H20.3892H20.388H20.3867H20.3854H20.3842H20.3829H20.3816H20.3804H20.3791H20.3778H20.3766H20.3753H20.374H20.3728H20.3715H20.3702H20.3689H20.3677H20.3664H20.3651H20.3639H20.3626H20.3613H20.3601H20.3588H20.3575H20.3563H20.355H20.3537H20.3525H20.3512H20.3499H20.3487H20.3474H20.3461H20.3448H20.3436H20.3423H20.341H20.3398H20.3385H20.3372H20.336H20.3347H20.3334H20.3322H20.3309H20.3296H20.3284H20.3271H20.3258H20.3246H20.3233H20.322H20.3207H20.3195H20.3182H20.3169H20.3157H20.3144H20.3131H20.3119H20.3106H20.3093H20.3081H20.3068H20.3055H20.3043H20.303H20.3017H20.3005H20.2992H20.2979H20.2966H20.2954H20.2941H20.2928H20.2916H20.2903H20.289H20.2878H20.2865H20.2852H20.284H20.2827H20.2814H20.2802H20.2789H20.2776H20.2764H20.2751H20.2738H20.2725H20.2713H20.27H20.2687H20.2675H20.2662H20.2649H20.2637H20.2624H20.2611H20.2599H20.2586H20.2573H20.2561H20.2548H20.2535H20.2523H20.251H20.2497H20.2484H20.2472H20.2459H20.2446H20.2434H20.2421H20.2408H20.2396H20.2383H20.237H20.2358H20.2345H20.2332H20.232H20.2307H20.2294H20.2282H20.2269H20.2256H20.2243H20.2231H20.2218H20.2205H20.2193H20.218H20.2167H20.2155H20.2142H20.2129H20.2117H20.2104H20.2091H20.2079H20.2066H20.2053H20.2041H20.2028H20.2015H20.2002H20.199H20.1977H20.1964H20.1952H20.1939H20.1926H20.1914H20.1901H20.1888H20.1876H20.1863H20.185H20.1838H20.1825H20.1812H20.18H20.1787H20.1774H20.1761H20.1749H20.1736H20.1723H20.1711H20.1698H20.1685H20.1673H20.166H20.1647H20.1635H20.1622H20.1609H20.1597H20.1584H20.1571H20.1559H20.1546H20.1533H20.152H20.1508H20.1495H20.1482H20.147H20.1457H20.1444H20.1432H20.1419H20.1406H20.1394H20.1381H20.1368H20.1356H20.1343H20.133H20.1318H20.1305H20.1292H20.1279H20.1267H20.1254H20.1241H20.1229H20.1216H20.1203H20.1191H20.1178H20.1165H20.1153H20.114H20.1127H20.1115H20.1102H20.1089H20.1077H20.1064H20.1051H20.1038H20.1026H20.1013H20.1H20.0988H20.0975H20.0962H20.095H20.0937H20.0924H20.0912H20.0899H20.0886H20.0874H20.0861H20.0848H20.0835H20.0823H20.081H20.0797H20.0785H20.0772H20.0759H20.0747H20.0734H20.0721H20.0709H20.0696H20.0683H20.0671H20.0658H20.0645H20.0633H20.062H20.0607H20.0595H20.0582H20.0569H20.0556H20.0544H20.0531H20.0518H20.0506H20.0493H20.048H20.0468H20.0455H20.0442H20.043H20.0417H20.0404H20.0392H20.0379H20.0366H20.0354H20.0341H20.0328H20.0315H20.0303H20.029H20.0277H20.0265H20.0252H20.0239H20.0227H20.0214H20.0201H20.0189H20.0176H20.0163H20.0151H20.0138H20.0125H20.0112H20.01H20.0087H20.0074H20.0062H20.0049H20.0036H20.0024H20.0011H19.9998H19.9986H19.9973H19.996H19.9948H19.9935H19.9922H19.991H19.9897H19.9884H19.9872H19.9859H19.9846H19.9833H19.9821H19.9808H19.9795H19.9783H19.977H19.9757H19.9745H19.9732H19.9719H19.9707H19.9694H19.9681H19.9669H19.9656H19.9643H19.963H19.9618H19.9605H19.9592H19.958H19.9567H19.9554H19.9542H19.9529H19.9516H19.9504H19.9491H19.9478H19.9466H19.9453H19.944H19.9428H19.9415H19.9402H19.9389H19.9377V-0.021637L24.0634 1.58799ZM24.0634 1.58799C24.4981 1.3217 24.9331 1.26581 25.4054 1.4117C25.6435 1.55565 25.7763 1.752 25.8219 2.03493C25.7662 3.1779 26.0198 4.25153 26.5813 5.24469L26.5945 5.26805L26.6101 5.28985C26.9146 5.71485 27.3081 6.03828 27.7838 6.25446L27.8323 6.27649L27.8843 6.28782C33.8967 7.59698 38.6584 10.7346 42.1916 15.7129C44.3647 18.9456 45.5829 22.5034 45.8481 26.3949V26.3966V26.4012V26.4059V26.4105V26.4152V26.4198V26.4245V26.4291V26.4338V26.4384V26.4431V26.4477V26.4524V26.457V26.4617V26.4663V26.471V26.4756V26.4803V26.4849V26.4896V26.4942V26.4989V26.5035V26.5082V26.5128V26.5175V26.5221V26.5268V26.5314V26.5361V26.5407V26.5454V26.55V26.5547V26.5593V26.564V26.5686V26.5732V26.5779V26.5825V26.5872V26.5918V26.5965V26.6011V26.6058V26.6104V26.6151V26.6197V26.6244V26.629V26.6337V26.6383V26.643V26.6476V26.6523V26.6569V26.6616V26.6662V26.6709V26.6755V26.6802V26.6848V26.6895V26.6941V26.6988V26.7034V26.7081V26.7127V26.7174V26.722V26.7267V26.7313V26.736V26.7406V26.7453V26.7499V26.7546V26.7592V26.7639V26.7685V26.7732V26.7778V26.7825V26.7871V26.7918V26.7964V26.8011V26.8057V26.8103V26.815V26.8196V26.8243V26.8289V26.8336V26.8382V26.8429V26.8475V26.8522V26.8568V26.8615V26.8661V26.8708V26.8754V26.8801V26.8847V26.8894V26.894V26.8987V26.9033V26.908V26.9126V26.9173V26.9219V26.9266V26.9312V26.9359V26.9405V26.9452V26.9498V26.9545V26.9591V26.9638V26.9684V26.9731V26.9777V26.9824V26.987V26.9917V26.9963V27.001V27.0056V27.0103V27.0149V27.0196V27.0242V27.0289V27.0335V27.0381V27.0428V27.0474V27.0521V27.0567V27.0614V27.066V27.0707V27.0753V27.08V27.0846V27.0893V27.0939V27.0986V27.1032V27.1079V27.1125V27.1172V27.1218V27.1265V27.1311V27.1358V27.1404V27.1451V27.1497V27.1544V27.159V27.1637V27.1683V27.173V27.1776V27.1823V27.1869V27.1916V27.1962V27.2009V27.2055V27.2102V27.2148V27.2195V27.2241V27.2288V27.2334V27.2381V27.2427V27.2474V27.252V27.2567V27.2613V27.266V27.2706V27.2753V27.2799V27.2845V27.2892V27.2938V27.2985V27.3031V27.3078V27.3124V27.3171V27.3217V27.3264V27.331V27.3357V27.3403V27.345V27.3496V27.3543V27.3589V27.3636V27.3682V27.3729V27.3775V27.3822V27.3868V27.3915V27.3961V27.4008V27.4054V27.4101V27.4147V27.4194V27.424V27.4287V27.4333V27.438V27.4426V27.4473V27.4519V27.4566V27.4612V27.4659V27.4705V27.4752V27.4798V27.4845V27.4891V27.4938V27.4984V27.5031V27.5077V27.5124V27.517V27.5217V27.5263V27.5309V27.5356V27.5402V27.5449V27.5495V27.5542V27.5588V27.5635V27.5681V27.5728V27.5774V27.5821V27.5867V27.5914V27.596V27.6007V27.6053V27.61V27.6146V27.6193V27.6239V27.6286V27.6332V27.6379V27.6425V27.6472V27.6518V27.6565V27.6611V27.6658V27.6704V27.6751V27.6797V27.6844V27.689V27.6937V27.6983V27.703V27.7076V27.7123V27.7169V27.7216V27.7262V27.7309V27.7355V27.7402V27.7448V27.7495V27.7541V27.7588V27.7634V27.7681V27.7727V27.7773V27.782V27.7866V27.7913V27.7959V27.8006V27.8052V27.8099V27.8145V27.8192V27.8238V27.8285V27.8331V27.8378V27.8424V27.8471V27.8517V27.8564V27.861V27.8657V27.8703V27.875V27.8796V27.8843V27.8889V27.8936V27.8982V27.9029V27.9075V27.9122V27.9168V27.9215V27.9261V27.9308V27.9354V27.9401V27.9447V27.9494V27.954V27.9587V27.9633V27.968V27.9726V27.9773V27.9819V27.9866V27.9912V27.9959V28.0005V28.0052V28.0098V28.0145V28.0191V28.0237V28.0284V28.033V28.0377V28.0423V28.047V28.0516V28.0563V28.0609V28.0656V28.0702V28.0749V28.0795V28.0842V28.0888V28.0935V28.0981V28.1028V28.1074V28.1121V28.1167V28.1214V28.126V28.1307V28.1353V28.14V28.1446V28.1493V28.1539V28.1586V28.1632V28.1679V28.1725V28.1772V28.1818V28.1865V28.1911V28.1958V28.2004V28.2051V28.2097V28.2144V28.219V28.2237V28.2283V28.233V28.2376V28.2423V28.2469V28.2516V28.2562V28.2608V28.2655V28.2701V28.2748V28.2794V28.2841V28.2887V28.2934V28.298V28.3027V28.3073V28.312V28.3166V28.3213V28.3259V28.3306V28.3352V28.3399V28.3445V28.3492V28.3538V28.3585V28.3631V28.3678V28.3724V28.3771V28.3817V28.3864V28.391V28.3957V28.4003V28.405V28.4096V28.4143V28.4189V28.4236V28.4282V28.4329V28.4375V28.4422V28.4468V28.4515V28.4561V28.4608V28.4654V28.4701V28.4747V28.4794V28.484V28.4886V28.4933V28.4979V28.5026V28.5072V28.5119V28.5165V28.5212V28.5258V28.5305V28.5351V28.5398V28.5444V28.5491V28.5537V28.5584V28.563V28.5677V28.5723V28.577V28.5816V28.5863V28.5909V28.5956V28.6002V28.6049V28.6095V28.6142V28.6188V28.6235V28.6281V28.6328V28.6374V28.6421V28.6467V28.6514V28.656V28.6607V28.6653V28.67V28.6746V28.6793V28.6839V28.6886V28.6932V28.6979V28.7025V28.7071V28.7118V28.7164V28.7211V28.7257V28.7304V28.735V28.7383C45.3221 35.2726 42.2292 40.1147 36.5401 43.3152C33.492 44.9292 30.251 45.9192 26.8136 46.2863C26.0684 46.3609 25.329 46.4249 24.5954 46.4784H24.591H24.5853H24.5796H24.574H24.5683H24.5626H24.557H24.5513H24.5456H24.54H24.5343H24.5286H24.523H24.5173H24.5116H24.506H24.5003H24.4946H24.489H24.4833H24.4776H24.472H24.4663H24.4606H24.455H24.4493H24.4437H24.438H24.4323H24.4267H24.421H24.4153H24.4097H24.404H24.3983H24.3927H24.387H24.3813H24.3757H24.37H24.3643H24.3587H24.353H24.3473H24.3417H24.336H24.3303H24.3247H24.319H24.3133H24.3077H24.302H24.2963H24.2907H24.285H24.2794H24.2737H24.268H24.2624H24.2567H24.251H24.2454H24.2397H24.234H24.2284H24.2227H24.217H24.2114H24.2057H24.2H24.1944H24.1887H24.183H24.1774H24.1717H24.166H24.1604H24.1547H24.149H24.1434H24.1377H24.132H24.1264H24.1207H24.115H24.1094H24.1037H24.098H24.0924H24.0867H24.0811H24.0754H24.0697H24.0641H24.0584H24.0527H24.0471H24.0414H24.0357H24.0301H24.0244H24.0187H24.0131H24.0074H24.0017H23.9961H23.9904H23.9847H23.9791H23.9734H23.9677H23.9621H23.9564H23.9507H23.9451H23.9394H23.9337H23.9281H23.9224H23.9167H23.9111H23.9054H23.8998H23.8941H23.8884H23.8828H23.8771H23.8714H23.8658H23.8601H23.8544H23.8488H23.8431H23.8374H23.8318H23.8261H23.8204H23.8148H23.8091H23.8034H23.7978H23.7921H23.7864H23.7808H23.7751H23.7694H23.7638H23.7581H23.7524H23.7468H23.7411H23.7354H23.7298H23.7241H23.7185H23.7128H23.7071H23.7015H23.6958H23.6901H23.6845H23.6788H23.6731H23.6675H23.6618H23.6561H23.6505H23.6448H23.6391H23.6335H23.6278H23.6221H23.6165H23.6108H23.6051H23.5995H23.5938H23.5881H23.5825H23.5768H23.5711H23.5655H23.5598H23.5541H23.5485H23.5428H23.5371H23.5315H23.5258H23.5202H23.5145H23.5088H23.5032H23.4975H23.4918H23.4862H23.4805H23.4748H23.4692H23.4635H23.4578H23.4522H23.4465H23.4408H23.4352H23.4295H23.4238H23.4182H23.4125H23.4068H23.4012H23.3955H23.3898H23.3842H23.3785H23.3728H23.3672H23.3615H23.3558H23.3502H23.3445H23.3389H23.3332H23.3275H23.3219H23.3162H23.3105H23.3049H23.2992H23.2935H23.2879H23.2822H23.2765H23.2709H23.2652H23.2595H23.2539H23.2482H23.2425H23.2369H23.2312H23.2255H23.2199H23.2142H23.2085H23.2029H23.1972H23.1915H23.1859H23.1802H23.1745H23.1689H23.1632H23.1575H23.1519H23.1462H23.1406H23.1349H23.1292H23.1236H23.1179H23.1122H23.1066H23.1009H23.0952H23.0896H23.0839H23.0782H23.0726H23.0669H23.0612H23.0556H23.0499H23.0442H23.0386H23.0329H23.0272H23.0216H23.0159H23.0102H23.0046H22.9989H22.9932H22.9876H22.9819H22.9762H22.9706H22.9649H22.9592H22.9536H22.9479H22.9423H22.9366H22.9309H22.9253H22.9196H22.9139H22.9083H22.9026H22.8969H22.8913H22.8856H22.8799H22.8743H22.8686H22.8629H22.8573H22.8516H22.8459H22.8403H22.8346H22.8289H22.8233H22.8176H22.8119H22.8063H22.8006H22.7949H22.7893H22.7836H22.7779H22.7723H22.7666H22.7609H22.7553H22.7496H22.744H22.7383H22.7326H22.727H22.7213H22.7156H22.71H22.7043H22.6986H22.693H22.6873H22.6816H22.676H22.6703H22.6646H22.659H22.6533H22.6476H22.642H22.6363H22.6306H22.625H22.6193H22.6136H22.608H22.6023H22.5966H22.591H22.5853H22.5796H22.574H22.5683H22.5627H22.557H22.5513H22.5457H22.54H22.5343H22.5287H22.523H22.5173H22.5117H22.506H22.5003H22.4947H22.489H22.4833H22.4777H22.472H22.4663H22.4607H22.455H22.4493H22.4437H22.438H22.4323H22.4267H22.421H22.4153H22.4097H22.404H22.3983H22.3927H22.387H22.3813H22.3757H22.37H22.3644H22.3587H22.353H22.3474H22.3417H22.336H22.3304H22.3247H22.319H22.3134H22.3077H22.302H22.2964H22.2907H22.285H22.2794H22.2737H22.268H22.2624H22.2567H22.251H22.2454H22.2397H22.234H22.2284H22.2227H22.217H22.2114H22.2057H22.2H22.1944H22.1887H22.1831H22.1774H22.1717H22.1661H22.1604H22.1547H22.1491H22.1434H22.1377H22.1321H22.1264H22.1207H22.1151H22.1094H22.1037H22.0981H22.0924H22.0867H22.0811H22.0754H22.0697H22.0641H22.0584H22.0527H22.0471H22.0414H22.0357H22.0301H22.0244H22.0187H22.0131H22.0074H22.0018H21.9961H21.9904H21.9848H21.9791H21.9734H21.9678H21.9621H21.9564H21.9508H21.9451H21.9394H21.9338H21.9281H21.9224H21.9168H21.9111H21.9054H21.8998H21.8941H21.8884H21.8828H21.8771H21.8714H21.8658H21.8601H21.8544H21.8488H21.8431H21.8374H21.8318H21.8261H21.8205H21.8148H21.8091H21.8035H21.7978H21.7921H21.7865H21.7808H21.7751H21.7695H21.7638H21.7581H21.7525H21.7468H21.7411H21.7355H21.7298H21.7241H21.7233C18.1046 46.3271 14.6338 45.5267 11.3076 44.0759C8.4283 42.7854 6.00512 40.9115 4.03279 38.4501C1.79978 35.4437 0.616306 32.0701 0.478348 28.3164V28.3137V28.3107V28.3078V28.3048V28.3018V28.2989V28.2959V28.293V28.29V28.287V28.2841V28.2811V28.2782V28.2752V28.2723V28.2693V28.2663V28.2634V28.2604V28.2575V28.2545V28.2515V28.2486V28.2456V28.2427V28.2397V28.2368V28.2338V28.2308V28.2279V28.2249V28.222V28.219V28.216V28.2131V28.2101V28.2072V28.2042V28.2013V28.1983V28.1953V28.1924V28.1894V28.1865V28.1835V28.1805V28.1776V28.1746V28.1717V28.1687V28.1657V28.1628V28.1598V28.1569V28.1539V28.151V28.148V28.145V28.1421V28.1391V28.1362V28.1332V28.1302V28.1273V28.1243V28.1214V28.1184V28.1155V28.1125V28.1095V28.1066V28.1036V28.1007V28.0977V28.0947V28.0918V28.0888V28.0859V28.0829V28.08V28.077V28.074V28.0711V28.0681V28.0652V28.0622V28.0592V28.0563V28.0533V28.0504V28.0474V28.0444V28.0415V28.0385V28.0356V28.0326V28.0297V28.0267V28.0237V28.0208V28.0178V28.0149V28.0119V28.0089V28.006V28.003V28.0001V27.9971V27.9942V27.9912V27.9882V27.9853V27.9823V27.9794V27.9764V27.9734V27.9705V27.9675V27.9646V27.9616V27.9587V27.9557V27.9527V27.9498V27.9468V27.9439V27.9409V27.9379V27.935V27.932V27.9291V27.9261V27.9232V27.9202V27.9172V27.9143V27.9113V27.9084V27.9054V27.9024V27.8995V27.8965V27.8936V27.8906V27.8877V27.8847V27.8817V27.8788V27.8758V27.8729V27.8699V27.8669V27.864V27.861V27.8581V27.8551V27.8521V27.8492V27.8462V27.8433V27.8403V27.8374V27.8344V27.8314V27.8285V27.8255V27.8226V27.8196V27.8166V27.8137V27.8107V27.8078V27.8048V27.8019V27.7989V27.7959V27.793V27.79V27.7871V27.7841V27.7811V27.7782V27.7752V27.7723V27.7693V27.7664V27.7634V27.7604V27.7575V27.7545V27.7516V27.7486V27.7456V27.7427V27.7397V27.7368V27.7338V27.7309V27.7279V27.7249V27.722V27.719V27.7161V27.7131V27.7101V27.7072V27.7042V27.7013V27.6983V27.6954V27.6924V27.6894V27.6865V27.6835V27.6806V27.6776V27.6746V27.6717V27.6687V27.6658V27.6628V27.6599V27.6569V27.6539V27.651V27.648V27.6451V27.6421V27.6391V27.6362V27.6332V27.6303V27.6273V27.6244V27.6214V27.6184V27.6155V27.6125V27.6096V27.6066V27.6036V27.6007V27.5977V27.5948V27.5918V27.5889V27.5859V27.5829V27.58V27.577V27.5741V27.5711V27.5681V27.5652V27.5622V27.5593V27.5563V27.5533V27.5504V27.5474V27.5445V27.5415V27.5386V27.5356V27.5326V27.5297V27.5267V27.5238V27.5208V27.5178V27.5149V27.5119V27.509V27.506V27.5031V27.5001V27.4971V27.4942V27.4912V27.4883V27.4853V27.4823V27.4794V27.4764V27.4735V27.4705V27.4676V27.4646V27.4616V27.4587V27.4557V27.4528V27.4498V27.4468V27.4439V27.4409V27.438V27.435V27.4321V27.4291V27.4261V27.4232V27.4202V27.4173V27.4143V27.4113V27.4084V27.4054V27.4025V27.3995V27.3966V27.3936V27.3906V27.3877V27.3847V27.3818V27.3788V27.3758V27.3729V27.3699V27.367V27.364V27.3611V27.3581V27.3551V27.3522V27.3492V27.3463V27.3433V27.3403V27.3374V27.3344V27.3315V27.3285V27.3256V27.3226V27.3196V27.3167V27.3137V27.3108V27.3078V27.3048V27.3019V27.2989V27.296V27.293V27.29V27.2871V27.2841V27.2812V27.2782V27.2753V27.2723V27.2693V27.2664V27.2634V27.2605V27.2575V27.2545V27.2516V27.2486V27.2457V27.2427V27.2398V27.2368V27.2338V27.2309V27.2279V27.225V27.222V27.219V27.2161V27.2131V27.2102V27.2072V27.2043V27.2013V27.1983V27.1954V27.1924V27.1895V27.1865V27.1835V27.1806V27.1776V27.1747V27.1717V27.1688V27.1658V27.1628V27.1599V27.1569V27.154V27.151V27.148V27.1451V27.1421V27.1392V27.1362V27.1333V27.1303V27.1273V27.1244V27.1214V27.1185V27.1155V27.1125V27.1096V27.1066V27.1037V27.1007V27.0977V27.0948V27.0918V27.0889V27.0859V27.083V27.08V27.077V27.0741V27.0711V27.0682V27.0652V27.0622V27.0593V27.0563V27.0534V27.0504V27.0475V27.0445V27.0415V27.0386V27.0356V27.0327V27.0297V27.0267V27.0238V27.0208V27.0179V27.0149V27.012V27.009V27.006V27.0031V27.0001V26.9972V26.9942V26.9912V26.9883V26.9853V26.9824V26.9794V26.9765V26.9735V26.9705V26.9676V26.9646V26.9617V26.9587V26.9557V26.9528V26.9498V26.9469V26.9439V26.941V26.938V26.935V26.9321V26.9291V26.9262V26.9232V26.9202V26.9173V26.9143V26.9114V26.9084V26.9054V26.9025V26.8995V26.8966V26.8936V26.8907V26.8877V26.8847V26.8818V26.8788V26.8759V26.8729V26.8699V26.867V26.864V26.8611V26.8581V26.8552V26.8522V26.8492V26.8463V26.8433V26.8404V26.8374V26.8344V26.8315V26.8285V26.8266L24.0634 1.58799Z" stroke="black"/>
    </g>
    <path fill-rule="evenodd" clip-rule="evenodd" d="M13.1403 24.3872C14.0331 24.3311 14.7764 24.634 15.37 25.296C15.4953 25.7625 15.3149 25.986 14.8288 25.9669C14.6224 25.7605 14.3915 25.5873 14.1361 25.4475C13.7209 25.2722 13.3024 25.2577 12.8805 25.4042C12.5825 25.558 12.3083 25.7455 12.0579 25.9669C11.7063 26.0336 11.5187 25.8894 11.495 25.5341C11.4846 25.409 11.5207 25.3008 11.6033 25.2095C12.0297 24.7692 12.542 24.4951 13.1403 24.3872Z" fill="#223336"/>
    <path fill-rule="evenodd" clip-rule="evenodd" d="M32.0172 24.3872C32.9101 24.3311 33.6533 24.634 34.2469 25.296C34.3723 25.7625 34.1918 25.986 33.7057 25.9669C33.4993 25.7605 33.2684 25.5873 33.013 25.4475C32.5978 25.2722 32.1793 25.2577 31.7574 25.4042C31.4595 25.558 31.1852 25.7455 30.9348 25.9669C30.5832 26.0336 30.3956 25.8894 30.372 25.5341C30.3616 25.409 30.3976 25.3008 30.4802 25.2095C30.9066 24.7692 31.4189 24.4951 32.0172 24.3872Z" fill="#223336"/>
    <path fill-rule="evenodd" clip-rule="evenodd" d="M13.1836 27.2003C14.3852 27.1547 15.1573 27.7029 15.4999 28.8448C15.6169 30.1695 15.0325 30.9846 13.7464 31.2901C12.9212 31.3645 12.2645 31.0687 11.7764 30.4029C11.1658 29.231 11.3895 28.2572 12.4475 27.4816C12.6882 27.3607 12.9335 27.267 13.1836 27.2003Z" fill="#203236"/>
    <path fill-rule="evenodd" clip-rule="evenodd" d="M32.0172 27.2003C33.1756 27.1547 33.9477 27.6741 34.3335 28.7583C34.5174 29.9995 34.0194 30.8291 32.8398 31.2468C31.6 31.4314 30.7701 30.9337 30.3503 29.7537C30.1832 28.4282 30.7388 27.577 32.0172 27.2003Z" fill="#203236"/>
    <path fill-rule="evenodd" clip-rule="evenodd" d="M12.7073 27.7196C13.4683 27.7245 13.6487 28.0563 13.2485 28.715C12.9259 29.0757 12.5434 29.1695 12.1012 28.9963C11.8807 28.7223 11.8735 28.441 12.0795 28.1524C12.2537 27.9472 12.463 27.8029 12.7073 27.7196Z" fill="#F9FAFA"/>
    <path fill-rule="evenodd" clip-rule="evenodd" d="M31.5842 27.7196C32.3452 27.7245 32.5257 28.0563 32.1254 28.715C31.8028 29.0757 31.4203 29.1695 30.9781 28.9963C30.7547 28.7237 30.7475 28.4424 30.9564 28.1524C31.1306 27.9472 31.3399 27.8029 31.5842 27.7196Z" fill="#F8FAFA"/>
    <path fill-rule="evenodd" clip-rule="evenodd" d="M22.319 28.715C23.0669 28.6559 23.7885 28.7641 24.4837 29.0396C25.3865 29.6001 26.3679 29.8598 27.4278 29.8186C27.7249 29.692 28.0279 29.5766 28.3371 29.4724C28.8788 29.3751 29.3839 29.4616 29.8524 29.732C30.5105 30.3627 30.5899 31.0624 30.0905 31.831C29.9174 32.033 29.7298 32.2205 29.5277 32.3936C29.4882 33.0194 29.5315 33.6398 29.6576 34.2546C29.8486 34.8561 30.0217 35.462 30.1771 36.0723C30.5827 37.7517 30.4817 39.3963 29.8741 41.006C29.2845 42.2589 28.3536 43.1605 27.0815 43.7109C26.0552 44.1255 24.9873 44.3561 23.8776 44.4033C22.1024 44.579 20.385 44.3479 18.7254 43.7109C16.7598 42.806 15.6702 41.2697 15.4566 39.1017C15.3696 37.9767 15.4561 36.8659 15.7164 35.7693C15.8752 35.2354 16.0339 34.7016 16.1926 34.168C16.2895 33.5799 16.3183 32.9884 16.2792 32.3936C15.6534 31.9648 15.3647 31.3734 15.4133 30.6192C15.7543 29.637 16.4398 29.2547 17.4698 29.4724C17.7695 29.5646 18.0582 29.68 18.3357 29.8186C19.0254 29.8913 19.6893 29.7904 20.3273 29.5157C20.7418 29.3518 21.1459 29.1642 21.5396 28.953C21.8002 28.8593 22.06 28.78 22.319 28.715Z" fill="#F2AC70"/>
    <path fill-rule="evenodd" clip-rule="evenodd" d="M22.8385 31.7012C24.5035 32.2688 26.1993 32.3698 27.9257 32.0041C28.3651 32.0892 28.495 32.3344 28.3154 32.7399C28.2375 32.8185 28.1437 32.869 28.034 32.8913C27.389 32.9992 26.7396 33.0713 26.0857 33.1077C25.7178 33.6815 25.1983 34.0421 24.527 34.1897C23.3335 34.5289 22.1501 34.5 20.9768 34.1031C20.5746 33.9348 20.221 33.6967 19.916 33.389C19.8569 33.3081 19.8064 33.2216 19.7645 33.1294C19.0823 33.0801 18.4041 33.0007 17.7296 32.8913C17.4672 32.7631 17.3734 32.5539 17.4482 32.2638C17.5492 32.1051 17.6935 32.0186 17.8811 32.0041C19.1846 32.2848 20.4907 32.292 21.7994 32.0258C22.1636 31.9568 22.5099 31.8486 22.8385 31.7012Z" fill="#203235"/>
    <path fill-rule="evenodd" clip-rule="evenodd" d="M22.8385 32.6533C23.5146 32.8664 24.2074 33.0034 24.9167 33.0645C24.6315 33.2221 24.3284 33.3375 24.0075 33.4107C23.0999 33.5929 22.2051 33.5496 21.3231 33.2808C21.1775 33.2081 21.0332 33.1359 20.8902 33.0645C21.5614 33.0011 22.2109 32.864 22.8385 32.6533Z" fill="#E55A43"/>
  </g>
  <defs>
    <filter id="filter0_d_58_3" x="-4.02165" y="-0.021637" width="54.3697" height="55" filterUnits="userSpaceOnUse" color-interpolation-filters="sRGB">
      <feFlood flood-opacity="0" result="BackgroundImageFix"/>
      <feColorMatrix in="SourceAlpha" type="matrix" values="0 0 0 0 0 0 0 0 0 0 0 0 0 0 0 0 0 0 127 0" result="hardAlpha"/>
      <feOffset dy="4"/>
      <feGaussianBlur stdDeviation="2"/>
      <feComposite in2="hardAlpha" operator="out"/>
      <feColorMatrix type="matrix" values="0 0 0 0 0 0 0 0 0 0 0 0 0 0 0 0 0 0 0.25 0"/>
      <feBlend mode="normal" in2="BackgroundImageFix" result="effect1_dropShadow_58_3"/>
      <feBlend mode="normal" in="SourceGraphic" in2="effect1_dropShadow_58_3" result="shape"/>
    </filter>
    <clipPath id="clip0_58_3">
      <rect width="46.3697" height="47" fill="white"/>
    </clipPath>
  </defs>
</svg>